<svg xmlns="http://www.w3.org/2000/svg" role="presentation" viewBox="0 0 36 36">
    <path fill="#FFCB4C" d="M36 18a18 18 0 1 1-36 0 18 18 0 0 1 36 0" />
    <ellipse cx="12.18" cy="14.71" fill="#65471B" rx="2.65" ry="3.71" />
    <circle cx="24.88" cy="14.29" r="6.88" fill="#F4F7F9" />
    <path fill="#65471B" d="M14.82 9.95c-.32 0-.64-.15-.84-.43-1-1.32-2.03-2.03-3.09-2.1-1.39-.1-2.52.95-2.73 1.16a1.06 1.06 0 1 1-1.5-1.5 5.92 5.92 0 0 1 4.38-1.77c1.7.12 3.26 1.1 4.63 2.94a1.06 1.06 0 0 1-.85 1.7z" />
    <path fill="#292F33" d="M32.82 36a1.06 1.06 0 0 1-1.06-1.06V14.82a1.06 1.06 0 1 1 2.12 0v20.12A1.06 1.06 0 0 1 32.82 36z" />
    <path fill="#67757F" d="m32.82 12.7-.15.02a7.95 7.95 0 0 0-15.73 1.57 7.95 7.95 0 0 0 15.44 2.6 2.12 2.12 0 1 0 .44-4.18zm-7.94 7.42a5.83 5.83 0 1 1 .02-11.66 5.83 5.83 0 0 1-.02 11.66z" />
    <path fill="#65471B" d="M21.18 28.59c-.16 0-.33-.04-.48-.11a5.7 5.7 0 0 0-5.4 0 1.06 1.06 0 1 1-.95-1.9 7.8 7.8 0 0 1 7.3 0 1.06 1.06 0 0 1-.47 2z" />
    <path fill="#BDDDF4" d="M28.05 9.41a5.79 5.79 0 0 0-3.17-.94 5.82 5.82 0 0 0-5.82 5.82c0 1.17.35 2.26.94 3.17l8.05-8.05zM22.4 19.55a5.8 5.8 0 0 0 2.48.57 5.82 5.82 0 0 0 5.83-5.83c0-.89-.21-1.73-.57-2.48l-7.74 7.74z" />
</svg>