<svg width="101" height="101" viewBox="0 0 101 101" fill="none" xmlns="http://www.w3.org/2000/svg">
<path d="M0.761108 0.297241H100.761V100.297H0.761108V0.297241Z" fill="#CF4547"/>
<path d="M35.3618 50.9631C35.3148 51.0316 35.2325 51.2451 35.1111 51.6075C34.9896 51.9699 34.8427 52.4223 34.6703 52.9668C34.498 53.5114 34.3099 54.1225 34.1102 54.7963C33.9084 55.4701 33.7008 56.1595 33.4892 56.8608C33.2757 57.5639 33.072 58.2514 32.8762 58.9272C32.6803 59.601 32.504 60.2121 32.3493 60.7566C32.1945 61.3012 32.0653 61.7575 31.9614 62.1277C31.8576 62.496 31.795 62.7134 31.7715 62.7819C31.7146 62.9994 31.6226 63.2422 31.4953 63.5086C31.368 63.775 31.2191 64.0257 31.0467 64.2647C30.8744 64.5037 30.6844 64.7015 30.4767 64.8582C30.2691 65.0149 30.0556 65.0932 29.8382 65.0932C29.47 65.0932 29.2016 64.9698 29.0351 64.725C28.8686 64.4801 28.7844 64.0296 28.7844 63.3754V63.0895C28.7844 62.9935 28.7903 62.8916 28.802 62.7839C28.8138 62.5665 28.9 62.1571 29.0606 61.5558C29.2212 60.9564 29.4151 60.2787 29.6384 59.5207C29.8617 58.7627 30.1046 57.9811 30.3631 57.1683C30.6217 56.3574 30.8548 55.6307 31.0624 54.9902C30.4513 55.6718 29.7912 56.3495 29.0763 57.0253C28.3633 57.701 27.6307 58.3063 26.8845 58.8449C26.1362 59.3836 25.3821 59.8243 24.6222 60.1631C23.8622 60.504 23.1316 60.6744 22.4304 60.6744C21.6253 60.6744 20.9319 60.4961 20.3502 60.1436C19.7685 59.789 19.2886 59.3248 18.9086 58.7529C18.5286 58.1809 18.2466 57.5326 18.0624 56.8098C17.8783 56.0871 17.7863 55.3643 17.7863 54.6415V54.3752C17.7863 54.2929 17.7921 54.2126 17.8039 54.1303C17.8724 52.8219 18.0605 51.4782 18.3641 50.1012C18.6696 48.7243 19.0692 47.3532 19.5648 45.9919C20.0603 44.6286 20.6323 43.2967 21.2826 41.9941C21.9328 40.6916 22.6399 39.4615 23.4058 38.3039C24.1717 37.1463 24.9845 36.0788 25.8483 35.1034C26.7121 34.128 27.5974 33.2896 28.5063 32.5884C29.4151 31.8872 30.3338 31.3388 31.2602 30.9431C32.1867 30.5474 33.1053 30.3496 34.0142 30.3496C35.0621 30.3496 36.0747 30.6356 37.0521 31.2075C38.0295 31.7795 38.9443 32.7079 39.7963 33.9889C39.9922 34.2749 40.1156 34.5648 40.1665 34.8586C40.2174 35.1524 40.2448 35.4285 40.2448 35.6871C40.2448 36.3002 40.0979 36.784 39.8041 37.1385C39.5103 37.493 39.1617 37.6693 38.7601 37.6693C38.3919 37.6693 38.0491 37.4754 37.7338 37.0856C37.4165 36.6978 37.0639 36.1415 36.6721 35.4188C36.3039 34.7645 35.8985 34.2905 35.4558 33.9967C35.0131 33.7029 34.5313 33.558 34.0142 33.558C33.2091 33.558 32.3473 33.8929 31.4326 34.5608C30.5179 35.2288 29.611 36.1121 28.7139 37.209C27.8168 38.3059 26.955 39.5595 26.1323 40.9717C25.3097 42.382 24.581 43.8275 23.9484 45.3063C23.3157 46.7851 22.8123 48.2444 22.4382 49.6821C22.0641 51.1198 21.878 52.4125 21.878 53.5584C21.878 53.9403 21.9035 54.3321 21.9564 54.7336C22.0092 55.1351 22.1052 55.5014 22.2502 55.8285C22.3931 56.1556 22.589 56.4259 22.8378 56.6355C23.0846 56.8471 23.398 56.9528 23.778 56.9528C24.203 56.9528 24.6868 56.8098 25.2274 56.5239C25.768 56.2379 26.3302 55.8638 26.9099 55.3996C27.4917 54.9353 28.0754 54.4104 28.663 53.8248C29.2506 53.2391 29.7971 52.6456 30.3024 52.0462C30.8078 51.4469 31.2583 50.871 31.6481 50.3187C32.0398 49.7663 32.3336 49.2864 32.5275 48.8771L34.1337 44.0723C34.3295 43.5552 34.5861 43.187 34.9015 42.9676C35.2188 42.7502 35.5439 42.6405 35.8769 42.6405C36.0375 42.6405 36.1981 42.6679 36.3607 42.7228C36.5213 42.7776 36.6663 42.8619 36.7916 42.9794C36.9189 43.0949 37.0188 43.2458 37.0933 43.4299C37.1677 43.614 37.2049 43.8295 37.2049 44.0743C37.2049 44.7285 37.1481 45.3416 37.0326 45.9155C36.917 46.4894 36.7701 47.0476 36.5918 47.5921C36.4136 48.1367 36.2158 48.6871 35.9964 49.2375C35.7809 49.7859 35.5674 50.3618 35.3618 50.9631V50.9631ZM57.1309 54.9706C56.6236 55.6522 56.034 56.3162 55.3622 56.9646C54.6884 57.6129 53.995 58.1888 53.282 58.6922C52.569 59.1955 51.8659 59.601 51.1764 59.9085C50.485 60.216 49.8641 60.3688 49.3117 60.3688C48.7594 60.3688 48.3108 60.1847 47.9641 59.8165C47.6194 59.4482 47.447 58.8214 47.447 57.9341C47.447 57.3073 47.5391 56.5767 47.7232 55.7463C47.4235 56.279 47.0494 56.8177 46.6009 57.3622C46.1523 57.9067 45.6391 58.4042 45.0633 58.8547C44.4874 59.3052 43.843 59.6695 43.13 59.9477C42.417 60.2278 41.6394 60.3669 40.7991 60.3669C40.4192 60.3669 40.0529 60.3198 39.7023 60.2239C39.3517 60.1279 39.0441 59.9653 38.7797 59.7342C38.5153 59.5031 38.3018 59.1936 38.1412 58.8038C37.9806 58.416 37.9003 57.9283 37.9003 57.3426C37.9003 57.3289 37.9238 57.1213 37.9688 56.7197C38.0139 56.3182 38.1608 55.6836 38.4095 54.8178C38.6563 53.9521 39.0402 52.8317 39.5573 51.4547C40.0764 50.0777 40.807 48.4089 41.7491 46.4443C41.9901 45.9272 42.2701 45.5551 42.5855 45.3298C42.9028 45.1046 43.2436 44.9929 43.6119 44.9929C43.7725 44.9929 43.939 45.0164 44.1133 45.0634C44.2857 45.1124 44.4463 45.1868 44.5971 45.2887C44.746 45.3905 44.8674 45.5198 44.9595 45.6765C45.0515 45.8332 45.0985 46.0134 45.0985 46.2191C45.0985 46.3562 45.0809 46.4855 45.0456 46.6069C44.9888 46.84 44.8654 47.1416 44.6735 47.5177C44.4835 47.8938 44.2622 48.3227 44.0095 48.8065C43.7568 49.2903 43.4885 49.8114 43.2064 50.3716C42.9244 50.9298 42.6619 51.5096 42.421 52.1089C42.18 52.7083 41.9724 53.3194 41.8001 53.9384C41.6277 54.5593 41.5298 55.1626 41.5062 55.7482C41.5062 55.9931 41.563 56.2183 41.6786 56.424C41.7942 56.6277 41.9842 56.7315 42.2486 56.7315C42.9968 56.7315 43.7098 56.4866 44.3895 55.995C45.0691 55.5053 45.6959 54.8942 46.2718 54.1656C46.8477 53.4369 47.3687 52.6535 47.8348 51.8132C48.301 50.9748 48.6908 50.209 49.0003 49.5136C49.2197 49.0494 49.4116 48.5519 49.5781 48.0211C49.7446 47.4903 49.9267 46.9987 50.1226 46.5481C50.3185 46.0976 50.5418 45.7235 50.7964 45.4238C51.0491 45.1242 51.3664 44.9733 51.7464 44.9733C52.1597 44.9733 52.4887 45.13 52.7297 45.4434C52.9706 45.7568 53.092 46.1329 53.092 46.5677C53.092 46.8126 53.0156 47.1514 52.8589 47.5804C52.7022 48.0093 52.5083 48.501 52.2713 49.0533C52.0363 49.6057 51.7797 50.1953 51.5035 50.8221C51.2273 51.4488 50.9707 52.0874 50.7357 52.7338C50.4987 53.3821 50.3048 54.0148 50.1481 54.6357C49.9933 55.2566 49.915 55.8324 49.915 56.3632C49.915 56.8549 50.1677 57.0997 50.675 57.0997C51.0315 57.0997 51.4741 56.9763 52.0049 56.7315C52.5357 56.4866 53.0901 56.1419 53.6718 55.6992C54.2535 55.2566 54.8333 54.7356 55.4151 54.1342C55.9968 53.5349 56.5119 52.8865 56.9605 52.1912L57.1309 54.9706V54.9706Z" fill="white" stroke="white" stroke-width="0.264085" stroke-miterlimit="10"/>
<path d="M57.6675 53.9482C57.5402 54.2616 57.4168 54.6259 57.2954 55.0431C57.174 55.4584 57.1152 55.8305 57.1152 56.1576C57.1152 56.3614 57.1504 56.5259 57.219 56.6493C57.2876 56.7727 57.4207 56.8334 57.6166 56.8334C57.8575 56.8334 58.1592 56.7492 58.5235 56.5768C58.8859 56.4064 59.2776 56.1812 59.6968 55.9011C60.1179 55.6229 60.5547 55.3017 61.0091 54.9393C61.4635 54.5789 61.916 54.2029 62.3645 53.815C62.8131 53.4253 63.242 53.0374 63.6514 52.6496C64.0608 52.2598 64.4251 51.9033 64.7483 51.5762C64.8403 51.4803 64.95 51.4117 65.0754 51.3725C65.2007 51.3314 65.3104 51.3118 65.4025 51.3118C65.6317 51.3118 65.8236 51.4078 65.9725 51.5978C66.1213 51.7878 66.1958 52.0404 66.1958 52.3538C66.1958 52.6398 66.1155 52.961 65.9548 53.3156C65.7942 53.6701 65.5122 54.0187 65.1087 54.3576C64.3722 55.1626 63.6299 55.9246 62.8816 56.6473C62.1334 57.3701 61.3891 58.0067 60.6467 58.559C59.9044 59.1114 59.1679 59.5501 58.4373 59.8792C57.7067 60.2063 56.9957 60.3689 56.3043 60.3689C55.8322 60.3689 55.4385 60.2944 55.1212 60.1436C54.8039 59.9928 54.5512 59.7891 54.3612 59.5306C54.1712 59.272 54.0361 58.9645 53.9558 58.61C53.8755 58.2554 53.8344 57.8813 53.8344 57.4857C53.8344 56.8177 53.9186 56.1322 54.0851 55.431C54.2516 54.7298 54.4494 54.0853 54.6805 53.4997C55.084 52.4361 55.4914 51.3804 55.9067 50.3305C56.3199 49.2806 56.6999 48.3189 57.0466 47.4473L62.2764 34.2573C62.484 33.7265 62.7621 33.3504 63.1147 33.133C63.4653 32.9156 63.8199 32.8059 64.1763 32.8059C64.5328 32.8059 64.858 32.9215 65.1518 33.1526C65.4456 33.3837 65.5925 33.7598 65.5925 34.2769C65.5925 34.5217 65.5435 34.7822 65.4456 35.0545C65.3476 35.3268 65.2242 35.6206 65.0754 35.934C64.7875 36.5745 64.4447 37.358 64.049 38.2844C63.6514 39.2109 63.2264 40.2196 62.7719 41.3106C62.3175 42.4016 61.8513 43.5357 61.3734 44.7149C60.8955 45.894 60.4293 47.0418 59.9749 48.1602C59.5205 49.2787 59.0954 50.3383 58.6978 51.3392C58.2963 52.3421 57.9535 53.2118 57.6675 53.9482V53.9482Z" fill="white" stroke="white" stroke-width="0.264085" stroke-miterlimit="10"/>
<path d="M82.1298 50.2462C82.2905 50.1365 82.4413 50.0484 82.5784 49.9798C82.7155 49.9113 82.8487 49.878 82.976 49.878C83.2287 49.878 83.4187 49.9916 83.546 50.2149C83.6733 50.4401 83.736 50.7163 83.736 51.0434C83.736 51.3979 83.6596 51.7583 83.5029 52.1266C83.3482 52.4948 83.1151 52.8004 82.8036 53.0472C81.5716 54.1382 80.4728 55.1332 79.5071 56.0322C78.5395 56.9313 77.6287 57.705 76.7708 58.3533C75.9129 59.0016 75.0765 59.5011 74.2597 59.8556C73.443 60.2102 72.5674 60.3864 71.6351 60.3864C70.7595 60.3864 70.0838 60.1945 69.6058 59.8145C69.1279 59.4325 68.889 58.9076 68.889 58.2397V58.0869C68.889 58.0399 68.8948 57.9811 68.9066 57.9126C68.9516 57.5032 69.1318 57.0331 69.4413 56.5023C69.7527 55.9715 70.1269 55.4191 70.5637 54.8452C71.0004 54.2713 71.4666 53.6935 71.9622 53.1079C72.4577 52.5222 72.9141 51.9659 73.3352 51.441C73.7544 50.9161 74.103 50.4362 74.3792 49.9994C74.6554 49.5626 74.7945 49.21 74.7945 48.9358C74.7945 48.7713 74.7357 48.642 74.6221 48.548C74.5065 48.452 74.3165 48.405 74.0521 48.405C73.5918 48.405 73.1178 48.5245 72.6281 48.7634C72.1385 49.0024 71.6547 49.3217 71.1787 49.7232C70.7008 50.1248 70.2346 50.585 69.7802 51.1041C69.3258 51.6232 68.9007 52.1599 68.5031 52.72C68.1055 53.2802 67.7431 53.8404 67.416 54.4065C67.0889 54.9726 66.8088 55.4936 66.5796 55.9715C66.5111 56.1223 66.4132 56.3339 66.2858 56.6061C66.1585 56.8784 66.0214 57.1859 65.8725 57.5267C65.7217 57.8675 65.565 58.2181 65.3966 58.5785C65.2301 58.9409 65.0773 59.2817 64.9402 59.601C64.8011 59.9222 64.6777 60.2062 64.568 60.4609C64.4584 60.7135 64.38 60.8859 64.335 60.9819C64.2762 61.1053 64.1822 61.3364 64.049 61.6772C63.9158 62.018 63.765 62.4157 63.5906 62.874C63.4183 63.3304 63.2361 63.8103 63.0481 64.3156C62.8581 64.821 62.6798 65.2969 62.5134 65.7474C62.3469 66.1979 62.2 66.5916 62.0726 66.9325C61.9453 67.2733 61.865 67.5044 61.8298 67.6278C61.7142 67.9823 61.5791 68.3153 61.4243 68.6307C61.2696 68.944 61.0913 69.2202 60.8896 69.4592C60.6878 69.6982 60.4587 69.8881 60.1982 70.0311C59.9396 70.1741 59.6478 70.2446 59.3265 70.2446C58.9113 70.2446 58.5705 70.1447 58.2982 69.9489C58.0279 69.751 57.8928 69.373 57.8928 68.8148C57.8928 68.5425 57.928 68.2624 57.9966 67.9764C58.0651 67.6905 58.1533 67.4065 58.2551 67.1283C58.3589 66.8482 58.4647 66.576 58.5744 66.3115C58.6841 66.0452 58.784 65.7905 58.876 65.5437C59.4969 64.1805 60.1316 62.8133 60.776 61.4441C61.4204 60.073 62.0393 58.7176 62.6309 57.3739C63.2244 56.0322 63.7728 54.7121 64.2801 53.4173C64.7855 52.1226 65.2066 50.8808 65.5396 49.6958C65.6316 49.451 65.7589 49.1023 65.9196 48.6518C66.0802 48.2013 66.2643 47.7586 66.4719 47.3218C66.6795 46.885 66.9126 46.507 67.1712 46.1877C67.4297 45.8665 67.7098 45.7079 68.0075 45.7079C68.4678 45.7079 68.8008 45.8136 69.0084 46.0252C69.2161 46.2367 69.3199 46.5462 69.3199 46.9556C69.3199 47.0378 69.3081 47.1671 69.2846 47.3434C69.2611 47.5197 69.2317 47.7077 69.1984 47.9055C69.1632 48.1034 69.126 48.2914 69.0868 48.4677C69.0457 48.644 69.0084 48.7732 68.9751 48.8555C69.4002 48.3913 69.8605 47.933 70.356 47.4746C70.8516 47.0182 71.3628 46.6049 71.8936 46.2367C72.4225 45.8685 72.9631 45.5688 73.5154 45.3357C74.0678 45.1046 74.6201 44.989 75.1725 44.989C75.5525 44.989 75.9286 45.0439 76.3027 45.1535C76.6768 45.2632 77.0098 45.4219 77.3036 45.6334C77.5974 45.845 77.8363 46.1114 78.0205 46.4306C78.2046 46.7519 78.2966 47.122 78.2966 47.5451C78.2966 48.1053 78.1556 48.7008 77.8736 49.3354C77.5915 49.97 77.237 50.6066 76.8119 51.2471C76.3849 51.8876 75.9246 52.5124 75.431 53.1177C74.9355 53.7249 74.4732 54.2772 74.0404 54.7747C73.6094 55.2722 73.2471 55.6953 72.9533 56.042C72.6595 56.3907 72.5067 56.6257 72.4949 56.7472C72.4949 56.9117 72.5478 57.0429 72.6497 57.1467C72.7515 57.2505 72.9259 57.2995 73.1687 57.2995C73.3646 57.2995 73.6525 57.1898 74.0325 56.9724C74.4125 56.755 74.9453 56.377 75.6289 55.8383C76.3125 55.2997 77.1821 54.5769 78.2359 53.67C79.2897 52.7651 80.5883 51.6232 82.1298 50.2462V50.2462Z" fill="white" stroke="white" stroke-width="0.264085" stroke-miterlimit="10"/>
</svg>
