<svg width="101" height="91" viewBox="0 0 101 91" fill="none" xmlns="http://www.w3.org/2000/svg">
<path fill-rule="evenodd" clip-rule="evenodd" d="M20.8466 32.9873L50.5915 90.8779L0.595703 32.9873H20.8466Z" fill="#EA6C00"/>
<path fill-rule="evenodd" clip-rule="evenodd" d="M80.3448 32.9873L50.5999 90.8779L100.596 32.9873H80.3448Z" fill="#EA6C00"/>
<path fill-rule="evenodd" clip-rule="evenodd" d="M20.8455 32.9873H80.3352L50.5903 90.8779L20.8455 32.9873Z" fill="#FDAD00"/>
<path fill-rule="evenodd" clip-rule="evenodd" d="M50.5903 0.904297L22.411 3.86619L20.8455 32.9873L50.5903 0.904297Z" fill="#FDD231"/>
<path fill-rule="evenodd" clip-rule="evenodd" d="M50.5904 0.904297L78.7698 3.86619L80.3353 32.9873L50.5904 0.904297Z" fill="#FDD231"/>
<path fill-rule="evenodd" clip-rule="evenodd" d="M100.596 32.9874L78.7792 3.86621L80.3448 32.9874H100.596Z" fill="#FDAD00"/>
<path fill-rule="evenodd" clip-rule="evenodd" d="M0.595703 32.9874L22.4121 3.86621L20.8466 32.9874H0.595703Z" fill="#FDAD00"/>
<path fill-rule="evenodd" clip-rule="evenodd" d="M50.5903 0.904297L20.8455 32.9873H80.3352L50.5903 0.904297Z" fill="#FEEEB7"/>
</svg>
