<svg width="101" height="101" viewBox="0 0 101 101" fill="none" xmlns="http://www.w3.org/2000/svg">
    <path d="M7.31654 50.4839C7.31654 67.4627 17.1833 82.1343 31.4908 89.088L11.0301 33.0276C8.57736 38.5201 7.3119 44.4686 7.31654 50.4839V50.4839ZM79.1659 48.3194C79.1659 43.0183 77.2618 39.3472 75.6286 36.4898C73.4543 32.9566 71.4171 29.9645 71.4171 26.4313C71.4171 22.4883 74.4068 18.818 78.619 18.818C78.8092 18.818 78.9896 18.8417 79.1757 18.8523C71.5436 11.8609 61.3766 7.59235 50.2097 7.59235C35.2248 7.59235 22.0411 15.2807 14.3715 26.9259C15.3779 26.9561 16.3271 26.9765 17.1318 26.9765C21.6183 26.9765 28.5632 26.4321 28.5632 26.4321C30.8754 26.2958 31.148 29.6919 28.839 29.9653C28.839 29.9653 26.5146 30.2387 23.9289 30.3742L39.5488 76.8348L48.9365 48.6826L42.2528 30.3734C39.9431 30.2379 37.7549 29.9645 37.7549 29.9645C35.4435 29.829 35.7145 26.295 38.0259 26.4313C38.0259 26.4313 45.1094 26.9756 49.3241 26.9756C53.8098 26.9756 60.7555 26.4313 60.7555 26.4313C63.0693 26.295 63.3411 29.691 61.0305 29.9645C61.0305 29.9645 58.702 30.2379 56.1212 30.3734L71.622 76.4823L75.8996 62.1854C77.7547 56.2526 79.1659 51.9913 79.1659 48.3194V48.3194Z" fill="white" />
    <path d="M50.9622 54.2358L38.0928 91.6312C42.0273 92.7907 46.1079 93.3795 50.2097 93.3795C55.2047 93.3795 59.9948 92.5151 64.4536 90.9481C64.334 90.7609 64.2318 90.5631 64.1483 90.3572L50.9622 54.2358ZM87.8468 29.9049C88.0312 31.2712 88.1357 32.7387 88.1357 34.3155C88.1357 38.6682 87.3228 43.5611 84.8742 49.6791L71.7722 87.5601C84.5241 80.124 93.1013 66.3086 93.1013 50.4839C93.1127 43.2909 91.3052 36.2119 87.8468 29.9049V29.9049Z" fill="white" />
    <path d="M50.2097 0.485107C22.6402 0.485107 0.209229 22.9144 0.209229 50.4839C0.209229 78.0566 22.6393 100.486 50.2097 100.486C77.7784 100.486 100.213 78.0574 100.213 50.4839C100.212 22.9144 77.7784 0.485107 50.2097 0.485107ZM50.2097 98.1932C23.9044 98.1932 2.50186 76.7907 2.50186 50.4839C2.50186 24.1794 23.9036 2.77855 50.2097 2.77855C76.5142 2.77855 97.9151 24.1794 97.9151 50.4839C97.9151 76.7907 76.5134 98.1932 50.2097 98.1932Z" fill="white" />
</svg>