<?xml version="1.0" standalone="no"?>
<!DOCTYPE svg PUBLIC "-//W3C//DTD SVG 20010904//EN"
 "http://www.w3.org/TR/2001/REC-SVG-20010904/DTD/svg10.dtd">
<svg version="1.0" xmlns="http://www.w3.org/2000/svg"
 width="700.000000pt" height="700.000000pt" viewBox="0 0 700.000000 700.000000"
 preserveAspectRatio="xMidYMid meet">
<metadata>
Created by potrace 1.14, written by Peter Selinger 2001-2017
</metadata>
<g transform="translate(0.000000,700.000000) scale(0.100000,-0.100000)"
fill="#000000" stroke="none">
<path d="M4360 5891 c0 -3 -21 -17 -47 -30 -70 -36 -167 -106 -198 -143 -20
-24 -155 -288 -155 -303 0 -3 -85 -184 -150 -320 -26 -55 -61 -129 -78 -165
-128 -278 -236 -506 -250 -527 -7 -12 -13 -24 -13 -27 0 -3 -20 -50 -45 -103
-53 -113 -95 -203 -134 -288 -15 -33 -50 -107 -78 -165 -85 -180 -133 -283
-162 -345 -15 -33 -47 -100 -70 -150 -23 -49 -55 -117 -70 -150 -15 -33 -51
-109 -80 -170 -29 -60 -63 -135 -77 -165 -14 -30 -53 -111 -85 -180 -33 -69
-71 -150 -85 -180 -14 -30 -46 -98 -70 -150 -61 -128 -105 -222 -141 -300 -16
-36 -50 -108 -75 -160 -82 -175 -96 -207 -105 -256 -34 -189 63 -396 222 -474
115 -57 212 -42 304 47 71 70 94 110 265 473 62 132 104 223 135 290 16 36 50
108 75 160 24 52 59 127 77 165 84 181 101 217 145 310 43 91 121 259 211 453
71 152 103 220 146 312 25 52 58 122 73 155 15 33 40 87 55 120 15 33 53 114
85 180 31 66 86 183 122 260 35 77 77 167 93 200 16 33 47 101 70 150 23 50
76 162 117 250 42 88 89 189 106 225 117 252 174 374 202 435 50 105 66 162
66 229 0 167 -98 287 -266 324 -65 14 -135 21 -135 13z"/>
<path d="M1620 5262 c-49 -6 -126 -35 -165 -63 -32 -22 -1242 -1236 -1360
-1364 -33 -35 -71 -104 -82 -145 -25 -98 -1 -236 54 -309 15 -20 172 -182 349
-361 177 -179 481 -486 676 -682 413 -418 407 -413 568 -413 77 1 104 5 143
24 89 42 166 126 198 215 38 108 21 243 -41 329 -16 21 -213 225 -439 453
-226 229 -422 434 -435 457 -61 106 -68 234 -17 342 26 57 73 108 424 462 482
485 449 451 480 504 106 183 31 423 -160 514 -54 25 -146 43 -193 37z"/>
<path d="M5303 5258 c-180 -20 -322 -176 -323 -356 -2 -157 10 -174 370 -536
560 -564 550 -552 583 -625 27 -58 31 -77 31 -152 0 -78 -4 -94 -33 -154 -29
-59 -79 -113 -441 -478 -225 -227 -422 -429 -439 -450 -68 -86 -91 -226 -56
-332 32 -92 100 -171 190 -218 55 -29 68 -32 155 -32 162 0 154 -6 578 423
200 202 509 513 686 692 177 179 332 341 343 360 60 100 67 241 17 347 -30 64
0 32 -896 935 -386 389 -533 531 -563 543 -72 30 -137 41 -202 33z"/>
</g>
</svg>
